<mxfile host="app.diagrams.net" modified="2022-08-25T09:17:03.880Z" agent="5.0 (Macintosh; Intel Mac OS X 10_15_7) AppleWebKit/537.36 (KHTML, like Gecko) Chrome/104.0.0.0 Safari/537.36" etag="4Sz18zfCIVuCrp1CAiL6" version="20.2.5" type="github">
  <diagram id="cy4SjuUmPLiRbW0oiVka" name="第 1 页">
    <mxGraphModel dx="1453" dy="836" grid="1" gridSize="10" guides="1" tooltips="1" connect="1" arrows="1" fold="1" page="1" pageScale="1" pageWidth="827" pageHeight="1169" math="0" shadow="0">
      <root>
        <mxCell id="0" />
        <mxCell id="1" parent="0" />
        <mxCell id="thMRCYJc_Z-FN8LmxaFf-1" value="Actor" style="shape=umlActor;verticalLabelPosition=bottom;verticalAlign=top;html=1;outlineConnect=0;" vertex="1" parent="1">
          <mxGeometry x="60" y="160" width="30" height="60" as="geometry" />
        </mxCell>
        <mxCell id="thMRCYJc_Z-FN8LmxaFf-2" value="Actor" style="shape=umlActor;verticalLabelPosition=bottom;verticalAlign=top;html=1;outlineConnect=0;" vertex="1" parent="1">
          <mxGeometry x="60" y="280" width="30" height="60" as="geometry" />
        </mxCell>
        <mxCell id="thMRCYJc_Z-FN8LmxaFf-3" value="Actor" style="shape=umlActor;verticalLabelPosition=bottom;verticalAlign=top;html=1;outlineConnect=0;" vertex="1" parent="1">
          <mxGeometry x="60" y="400" width="30" height="60" as="geometry" />
        </mxCell>
        <mxCell id="thMRCYJc_Z-FN8LmxaFf-4" value="" style="endArrow=classic;html=1;rounded=0;" edge="1" parent="1">
          <mxGeometry width="50" height="50" relative="1" as="geometry">
            <mxPoint x="100" y="200" as="sourcePoint" />
            <mxPoint x="200" y="320" as="targetPoint" />
          </mxGeometry>
        </mxCell>
        <mxCell id="thMRCYJc_Z-FN8LmxaFf-5" value="" style="endArrow=classic;html=1;rounded=0;" edge="1" parent="1">
          <mxGeometry width="50" height="50" relative="1" as="geometry">
            <mxPoint x="100" y="320" as="sourcePoint" />
            <mxPoint x="200" y="320" as="targetPoint" />
          </mxGeometry>
        </mxCell>
        <mxCell id="thMRCYJc_Z-FN8LmxaFf-6" value="" style="endArrow=classic;html=1;rounded=0;" edge="1" parent="1">
          <mxGeometry width="50" height="50" relative="1" as="geometry">
            <mxPoint x="100" y="440" as="sourcePoint" />
            <mxPoint x="200" y="320" as="targetPoint" />
          </mxGeometry>
        </mxCell>
        <mxCell id="thMRCYJc_Z-FN8LmxaFf-8" value="接入层" style="rounded=0;whiteSpace=wrap;html=1;direction=south;" vertex="1" parent="1">
          <mxGeometry x="200" y="260" width="60" height="120" as="geometry" />
        </mxCell>
        <mxCell id="thMRCYJc_Z-FN8LmxaFf-9" value="" style="endArrow=classic;html=1;rounded=0;exitX=1;exitY=0.5;exitDx=0;exitDy=0;" edge="1" parent="1" source="thMRCYJc_Z-FN8LmxaFf-8" target="thMRCYJc_Z-FN8LmxaFf-10">
          <mxGeometry width="50" height="50" relative="1" as="geometry">
            <mxPoint x="340" y="570" as="sourcePoint" />
            <mxPoint x="230" y="560" as="targetPoint" />
          </mxGeometry>
        </mxCell>
        <mxCell id="thMRCYJc_Z-FN8LmxaFf-10" value="mysql" style="shape=cylinder3;whiteSpace=wrap;html=1;boundedLbl=1;backgroundOutline=1;size=15;" vertex="1" parent="1">
          <mxGeometry x="190" y="490" width="80" height="70" as="geometry" />
        </mxCell>
        <mxCell id="thMRCYJc_Z-FN8LmxaFf-12" value="" style="rounded=0;whiteSpace=wrap;html=1;" vertex="1" parent="1">
          <mxGeometry x="430" y="200" width="120" height="290" as="geometry" />
        </mxCell>
        <mxCell id="thMRCYJc_Z-FN8LmxaFf-15" value="" style="endArrow=classic;html=1;rounded=0;entryX=1;entryY=0.5;entryDx=0;entryDy=0;entryPerimeter=0;" edge="1" parent="1" target="thMRCYJc_Z-FN8LmxaFf-10">
          <mxGeometry width="50" height="50" relative="1" as="geometry">
            <mxPoint x="600" y="515" as="sourcePoint" />
            <mxPoint x="270" y="555" as="targetPoint" />
            <Array as="points">
              <mxPoint x="600" y="525" />
            </Array>
          </mxGeometry>
        </mxCell>
        <mxCell id="thMRCYJc_Z-FN8LmxaFf-18" value="" style="endArrow=none;html=1;rounded=0;exitX=1.006;exitY=0.106;exitDx=0;exitDy=0;exitPerimeter=0;" edge="1" parent="1" source="thMRCYJc_Z-FN8LmxaFf-12">
          <mxGeometry width="50" height="50" relative="1" as="geometry">
            <mxPoint x="610" y="560" as="sourcePoint" />
            <mxPoint x="600" y="230" as="targetPoint" />
          </mxGeometry>
        </mxCell>
        <mxCell id="thMRCYJc_Z-FN8LmxaFf-19" value="" style="endArrow=none;html=1;rounded=0;exitX=1;exitY=0.5;exitDx=0;exitDy=0;" edge="1" parent="1">
          <mxGeometry width="50" height="50" relative="1" as="geometry">
            <mxPoint x="550" y="329.5" as="sourcePoint" />
            <mxPoint x="600" y="329.5" as="targetPoint" />
          </mxGeometry>
        </mxCell>
        <mxCell id="thMRCYJc_Z-FN8LmxaFf-21" value="" style="endArrow=none;html=1;rounded=0;exitX=1;exitY=0.5;exitDx=0;exitDy=0;" edge="1" parent="1">
          <mxGeometry width="50" height="50" relative="1" as="geometry">
            <mxPoint x="550" y="439.5" as="sourcePoint" />
            <mxPoint x="600" y="439.5" as="targetPoint" />
          </mxGeometry>
        </mxCell>
        <mxCell id="thMRCYJc_Z-FN8LmxaFf-22" value="" style="endArrow=none;html=1;rounded=0;" edge="1" parent="1">
          <mxGeometry width="50" height="50" relative="1" as="geometry">
            <mxPoint x="600" y="520" as="sourcePoint" />
            <mxPoint x="600" y="230" as="targetPoint" />
          </mxGeometry>
        </mxCell>
        <mxCell id="thMRCYJc_Z-FN8LmxaFf-23" value="" style="endArrow=classic;html=1;rounded=0;" edge="1" parent="1">
          <mxGeometry width="50" height="50" relative="1" as="geometry">
            <mxPoint x="600" y="230" as="sourcePoint" />
            <mxPoint x="700" y="330" as="targetPoint" />
          </mxGeometry>
        </mxCell>
        <mxCell id="thMRCYJc_Z-FN8LmxaFf-26" value="" style="endArrow=classic;html=1;rounded=0;" edge="1" parent="1">
          <mxGeometry width="50" height="50" relative="1" as="geometry">
            <mxPoint x="600" y="330" as="sourcePoint" />
            <mxPoint x="700" y="330" as="targetPoint" />
          </mxGeometry>
        </mxCell>
        <mxCell id="thMRCYJc_Z-FN8LmxaFf-27" value="" style="endArrow=classic;html=1;rounded=0;" edge="1" parent="1">
          <mxGeometry width="50" height="50" relative="1" as="geometry">
            <mxPoint x="600" y="440" as="sourcePoint" />
            <mxPoint x="700" y="330" as="targetPoint" />
          </mxGeometry>
        </mxCell>
        <mxCell id="thMRCYJc_Z-FN8LmxaFf-28" value="" style="endArrow=classic;html=1;rounded=0;exitX=0.348;exitY=0.094;exitDx=0;exitDy=0;exitPerimeter=0;entryX=0;entryY=0.5;entryDx=0;entryDy=0;" edge="1" parent="1" source="thMRCYJc_Z-FN8LmxaFf-34" target="thMRCYJc_Z-FN8LmxaFf-8">
          <mxGeometry width="50" height="50" relative="1" as="geometry">
            <mxPoint x="830" y="290" as="sourcePoint" />
            <mxPoint x="210" y="160" as="targetPoint" />
            <Array as="points">
              <mxPoint x="730" y="160" />
              <mxPoint x="230" y="160" />
            </Array>
          </mxGeometry>
        </mxCell>
        <mxCell id="thMRCYJc_Z-FN8LmxaFf-29" value="" style="endArrow=classic;html=1;rounded=0;entryX=0;entryY=0.5;entryDx=0;entryDy=0;" edge="1" parent="1" target="thMRCYJc_Z-FN8LmxaFf-30">
          <mxGeometry width="50" height="50" relative="1" as="geometry">
            <mxPoint x="260" y="320" as="sourcePoint" />
            <mxPoint x="290" y="320" as="targetPoint" />
          </mxGeometry>
        </mxCell>
        <mxCell id="thMRCYJc_Z-FN8LmxaFf-30" value="channel&lt;br&gt;监听队列" style="shape=step;perimeter=stepPerimeter;whiteSpace=wrap;html=1;fixedSize=1;" vertex="1" parent="1">
          <mxGeometry x="280" y="300" width="90" height="40" as="geometry" />
        </mxCell>
        <mxCell id="thMRCYJc_Z-FN8LmxaFf-31" value="" style="endArrow=classic;html=1;rounded=0;entryX=0;entryY=0.085;entryDx=0;entryDy=0;exitX=1;exitY=0.5;exitDx=0;exitDy=0;entryPerimeter=0;" edge="1" parent="1" source="thMRCYJc_Z-FN8LmxaFf-30" target="thMRCYJc_Z-FN8LmxaFf-12">
          <mxGeometry width="50" height="50" relative="1" as="geometry">
            <mxPoint x="340" y="570" as="sourcePoint" />
            <mxPoint x="390" y="520" as="targetPoint" />
            <Array as="points" />
          </mxGeometry>
        </mxCell>
        <mxCell id="thMRCYJc_Z-FN8LmxaFf-32" value="" style="endArrow=classic;html=1;rounded=0;exitX=1;exitY=0.5;exitDx=0;exitDy=0;entryX=-0.006;entryY=0.42;entryDx=0;entryDy=0;entryPerimeter=0;" edge="1" parent="1" source="thMRCYJc_Z-FN8LmxaFf-30" target="thMRCYJc_Z-FN8LmxaFf-12">
          <mxGeometry width="50" height="50" relative="1" as="geometry">
            <mxPoint x="340" y="570" as="sourcePoint" />
            <mxPoint x="430" y="330" as="targetPoint" />
          </mxGeometry>
        </mxCell>
        <mxCell id="thMRCYJc_Z-FN8LmxaFf-33" value="" style="endArrow=classic;html=1;rounded=0;exitX=1;exitY=0.5;exitDx=0;exitDy=0;entryX=0;entryY=0.5;entryDx=0;entryDy=0;" edge="1" parent="1" source="thMRCYJc_Z-FN8LmxaFf-30">
          <mxGeometry width="50" height="50" relative="1" as="geometry">
            <mxPoint x="340" y="570" as="sourcePoint" />
            <mxPoint x="430" y="430" as="targetPoint" />
          </mxGeometry>
        </mxCell>
        <mxCell id="thMRCYJc_Z-FN8LmxaFf-34" value="minio" style="ellipse;shape=cloud;whiteSpace=wrap;html=1;" vertex="1" parent="1">
          <mxGeometry x="690" y="290" width="120" height="80" as="geometry" />
        </mxCell>
        <mxCell id="thMRCYJc_Z-FN8LmxaFf-38" value="" style="shape=link;html=1;rounded=0;entryX=1.012;entryY=0.272;entryDx=0;entryDy=0;entryPerimeter=0;" edge="1" parent="1">
          <mxGeometry width="100" relative="1" as="geometry">
            <mxPoint x="430" y="290" as="sourcePoint" />
            <mxPoint x="551.44" y="288.8800000000001" as="targetPoint" />
            <Array as="points">
              <mxPoint x="490" y="290" />
            </Array>
          </mxGeometry>
        </mxCell>
        <mxCell id="thMRCYJc_Z-FN8LmxaFf-40" value="" style="shape=link;html=1;rounded=0;entryX=1.012;entryY=0.272;entryDx=0;entryDy=0;entryPerimeter=0;" edge="1" parent="1">
          <mxGeometry width="100" relative="1" as="geometry">
            <mxPoint x="430" y="398.12" as="sourcePoint" />
            <mxPoint x="551.44" y="397.0000000000001" as="targetPoint" />
          </mxGeometry>
        </mxCell>
        <mxCell id="thMRCYJc_Z-FN8LmxaFf-41" value="服务A" style="text;html=1;resizable=0;autosize=1;align=center;verticalAlign=middle;points=[];fillColor=none;strokeColor=none;rounded=0;" vertex="1" parent="1">
          <mxGeometry x="450" y="175" width="60" height="30" as="geometry" />
        </mxCell>
        <mxCell id="thMRCYJc_Z-FN8LmxaFf-42" value="cpu 1" style="text;html=1;resizable=0;autosize=1;align=center;verticalAlign=middle;points=[];fillColor=none;strokeColor=none;rounded=0;" vertex="1" parent="1">
          <mxGeometry x="495" y="240" width="50" height="30" as="geometry" />
        </mxCell>
        <mxCell id="thMRCYJc_Z-FN8LmxaFf-43" value="cpu 2" style="text;html=1;resizable=0;autosize=1;align=center;verticalAlign=middle;points=[];fillColor=none;strokeColor=none;rounded=0;" vertex="1" parent="1">
          <mxGeometry x="500" y="350" width="50" height="30" as="geometry" />
        </mxCell>
        <mxCell id="thMRCYJc_Z-FN8LmxaFf-44" value="cpu 3" style="text;html=1;resizable=0;autosize=1;align=center;verticalAlign=middle;points=[];fillColor=none;strokeColor=none;rounded=0;" vertex="1" parent="1">
          <mxGeometry x="500" y="460" width="50" height="30" as="geometry" />
        </mxCell>
        <mxCell id="thMRCYJc_Z-FN8LmxaFf-46" value="更新导出任务状态" style="text;html=1;resizable=0;autosize=1;align=center;verticalAlign=middle;points=[];fillColor=none;strokeColor=none;rounded=0;" vertex="1" parent="1">
          <mxGeometry x="294" y="490" width="120" height="30" as="geometry" />
        </mxCell>
        <mxCell id="thMRCYJc_Z-FN8LmxaFf-47" value="添加导出任务" style="text;html=1;resizable=0;autosize=1;align=center;verticalAlign=middle;points=[];fillColor=none;strokeColor=none;rounded=0;rotation=90;" vertex="1" parent="1">
          <mxGeometry x="170" y="415" width="100" height="30" as="geometry" />
        </mxCell>
        <mxCell id="thMRCYJc_Z-FN8LmxaFf-49" value="Actor" style="shape=umlActor;verticalLabelPosition=bottom;verticalAlign=top;html=1;outlineConnect=0;" vertex="1" parent="1">
          <mxGeometry x="60" y="790" width="30" height="60" as="geometry" />
        </mxCell>
        <mxCell id="thMRCYJc_Z-FN8LmxaFf-50" value="" style="endArrow=classic;html=1;rounded=0;" edge="1" parent="1" source="thMRCYJc_Z-FN8LmxaFf-49">
          <mxGeometry width="50" height="50" relative="1" as="geometry">
            <mxPoint x="490" y="1070" as="sourcePoint" />
            <mxPoint x="140" y="820" as="targetPoint" />
          </mxGeometry>
        </mxCell>
        <mxCell id="thMRCYJc_Z-FN8LmxaFf-51" value="接入层" style="rounded=0;whiteSpace=wrap;html=1;direction=south;" vertex="1" parent="1">
          <mxGeometry x="140" y="790" width="60" height="90" as="geometry" />
        </mxCell>
        <mxCell id="thMRCYJc_Z-FN8LmxaFf-52" value="mysql" style="shape=cylinder3;whiteSpace=wrap;html=1;boundedLbl=1;backgroundOutline=1;size=15;" vertex="1" parent="1">
          <mxGeometry x="130" y="960" width="80" height="70" as="geometry" />
        </mxCell>
        <mxCell id="thMRCYJc_Z-FN8LmxaFf-53" value="添加导出任务" style="text;html=1;resizable=0;autosize=1;align=center;verticalAlign=middle;points=[];fillColor=none;strokeColor=none;rounded=0;rotation=0;" vertex="1" parent="1">
          <mxGeometry x="120" y="900" width="100" height="30" as="geometry" />
        </mxCell>
        <mxCell id="thMRCYJc_Z-FN8LmxaFf-54" value="" style="endArrow=classic;html=1;rounded=0;exitX=1;exitY=0.5;exitDx=0;exitDy=0;" edge="1" parent="1">
          <mxGeometry width="50" height="50" relative="1" as="geometry">
            <mxPoint x="170" y="880" as="sourcePoint" />
            <mxPoint x="170" y="960" as="targetPoint" />
          </mxGeometry>
        </mxCell>
        <mxCell id="thMRCYJc_Z-FN8LmxaFf-55" value="channel&lt;br&gt;监听队列" style="shape=step;perimeter=stepPerimeter;whiteSpace=wrap;html=1;fixedSize=1;" vertex="1" parent="1">
          <mxGeometry x="220" y="815" width="90" height="40" as="geometry" />
        </mxCell>
        <mxCell id="thMRCYJc_Z-FN8LmxaFf-56" value="" style="endArrow=classic;html=1;rounded=0;entryX=0;entryY=0.5;entryDx=0;entryDy=0;" edge="1" parent="1">
          <mxGeometry width="50" height="50" relative="1" as="geometry">
            <mxPoint x="200" y="834.63" as="sourcePoint" />
            <mxPoint x="240" y="834.63" as="targetPoint" />
          </mxGeometry>
        </mxCell>
        <mxCell id="thMRCYJc_Z-FN8LmxaFf-76" value="单一任务在多核cpu上并行处理查询等量数据" style="swimlane;childLayout=stackLayout;resizeParent=1;resizeParentMax=0;horizontal=1;startSize=20;horizontalStack=0;" vertex="1" parent="1">
          <mxGeometry x="335" y="725" width="290" height="220" as="geometry" />
        </mxCell>
        <mxCell id="thMRCYJc_Z-FN8LmxaFf-77" value="task 1" style="swimlane;startSize=20;horizontal=0;" vertex="1" parent="thMRCYJc_Z-FN8LmxaFf-76">
          <mxGeometry y="20" width="290" height="70" as="geometry" />
        </mxCell>
        <mxCell id="thMRCYJc_Z-FN8LmxaFf-78" value="task 2" style="swimlane;startSize=20;horizontal=0;" vertex="1" parent="thMRCYJc_Z-FN8LmxaFf-76">
          <mxGeometry y="90" width="290" height="70" as="geometry" />
        </mxCell>
        <mxCell id="thMRCYJc_Z-FN8LmxaFf-79" value="task 3" style="swimlane;startSize=20;horizontal=0;" vertex="1" parent="thMRCYJc_Z-FN8LmxaFf-76">
          <mxGeometry y="160" width="290" height="60" as="geometry" />
        </mxCell>
        <mxCell id="thMRCYJc_Z-FN8LmxaFf-82" value="" style="endArrow=classic;html=1;rounded=0;exitX=1;exitY=0.5;exitDx=0;exitDy=0;" edge="1" parent="1" source="thMRCYJc_Z-FN8LmxaFf-55">
          <mxGeometry width="50" height="50" relative="1" as="geometry">
            <mxPoint x="490" y="950" as="sourcePoint" />
            <mxPoint x="330" y="835" as="targetPoint" />
          </mxGeometry>
        </mxCell>
        <mxCell id="thMRCYJc_Z-FN8LmxaFf-83" value="" style="endArrow=classic;html=1;rounded=0;" edge="1" parent="1">
          <mxGeometry width="50" height="50" relative="1" as="geometry">
            <mxPoint x="630" y="770" as="sourcePoint" />
            <mxPoint x="710" y="850" as="targetPoint" />
          </mxGeometry>
        </mxCell>
        <mxCell id="thMRCYJc_Z-FN8LmxaFf-84" value="" style="endArrow=classic;html=1;rounded=0;exitX=1;exitY=0.5;exitDx=0;exitDy=0;" edge="1" parent="1" source="thMRCYJc_Z-FN8LmxaFf-78" target="thMRCYJc_Z-FN8LmxaFf-86">
          <mxGeometry width="50" height="50" relative="1" as="geometry">
            <mxPoint x="630" y="850" as="sourcePoint" />
            <mxPoint x="690" y="850.0000000000002" as="targetPoint" />
          </mxGeometry>
        </mxCell>
        <mxCell id="thMRCYJc_Z-FN8LmxaFf-85" value="" style="endArrow=classic;html=1;rounded=0;exitX=1;exitY=0.5;exitDx=0;exitDy=0;" edge="1" parent="1" source="thMRCYJc_Z-FN8LmxaFf-79">
          <mxGeometry width="50" height="50" relative="1" as="geometry">
            <mxPoint x="640" y="860.0000000000002" as="sourcePoint" />
            <mxPoint x="710" y="850" as="targetPoint" />
          </mxGeometry>
        </mxCell>
        <mxCell id="thMRCYJc_Z-FN8LmxaFf-88" value="" style="edgeStyle=orthogonalEdgeStyle;rounded=0;orthogonalLoop=1;jettySize=auto;html=1;" edge="1" parent="1" source="thMRCYJc_Z-FN8LmxaFf-86" target="thMRCYJc_Z-FN8LmxaFf-87">
          <mxGeometry relative="1" as="geometry" />
        </mxCell>
        <mxCell id="thMRCYJc_Z-FN8LmxaFf-86" value="channel&lt;br&gt;队列" style="shape=step;perimeter=stepPerimeter;whiteSpace=wrap;html=1;fixedSize=1;" vertex="1" parent="1">
          <mxGeometry x="700" y="830" width="90" height="40" as="geometry" />
        </mxCell>
        <mxCell id="thMRCYJc_Z-FN8LmxaFf-91" value="" style="edgeStyle=orthogonalEdgeStyle;rounded=0;orthogonalLoop=1;jettySize=auto;html=1;" edge="1" parent="1" source="thMRCYJc_Z-FN8LmxaFf-87" target="thMRCYJc_Z-FN8LmxaFf-90">
          <mxGeometry relative="1" as="geometry" />
        </mxCell>
        <mxCell id="thMRCYJc_Z-FN8LmxaFf-87" value="生成Excel" style="whiteSpace=wrap;html=1;" vertex="1" parent="1">
          <mxGeometry x="810" y="830" width="80" height="40" as="geometry" />
        </mxCell>
        <mxCell id="thMRCYJc_Z-FN8LmxaFf-90" value="minio" style="ellipse;shape=cloud;whiteSpace=wrap;html=1;" vertex="1" parent="1">
          <mxGeometry x="920" y="810" width="70" height="80" as="geometry" />
        </mxCell>
        <mxCell id="thMRCYJc_Z-FN8LmxaFf-92" value="" style="endArrow=classic;html=1;rounded=0;exitX=0.4;exitY=0.1;exitDx=0;exitDy=0;exitPerimeter=0;entryX=-0.001;entryY=0.575;entryDx=0;entryDy=0;entryPerimeter=0;" edge="1" parent="1" source="thMRCYJc_Z-FN8LmxaFf-90" target="thMRCYJc_Z-FN8LmxaFf-51">
          <mxGeometry width="50" height="50" relative="1" as="geometry">
            <mxPoint x="490" y="950" as="sourcePoint" />
            <mxPoint x="540" y="900" as="targetPoint" />
            <Array as="points">
              <mxPoint x="950" y="690" />
              <mxPoint x="166" y="690" />
            </Array>
          </mxGeometry>
        </mxCell>
        <mxCell id="thMRCYJc_Z-FN8LmxaFf-93" value="" style="endArrow=classic;html=1;rounded=0;entryX=1;entryY=0.5;entryDx=0;entryDy=0;entryPerimeter=0;" edge="1" parent="1">
          <mxGeometry width="50" height="50" relative="1" as="geometry">
            <mxPoint x="900" y="850" as="sourcePoint" />
            <mxPoint x="210" y="1000" as="targetPoint" />
            <Array as="points">
              <mxPoint x="900" y="1000" />
            </Array>
          </mxGeometry>
        </mxCell>
        <mxCell id="thMRCYJc_Z-FN8LmxaFf-94" value="更新导出任务状态" style="text;html=1;resizable=0;autosize=1;align=center;verticalAlign=middle;points=[];fillColor=none;strokeColor=none;rounded=0;" vertex="1" parent="1">
          <mxGeometry x="230" y="970" width="120" height="30" as="geometry" />
        </mxCell>
      </root>
    </mxGraphModel>
  </diagram>
</mxfile>
